# xmcd
#
# Track frame offsets: 
#        150
#        23407
#        41930
#        60105
#        74527
#        97072
#        115049
#        135126
#        153312
#        173794
#        178977
#        196982
#
# Disc length: 2756 seconds
#
# Revision: 0
# Processed by: cddbd v1.5.2PL0 Copyright (c) Steve Scherf et al.
# Submitted via: ExactAudioCopy v0.99pb4
#
DISCID=990ac20c
DTITLE=Joy Electric - My Grandfather, The Cubist
DYEAR=2008
DGENRE=Synthpop
TTITLE0=Victorian Intuition - Father Winter Replies
TTITLE1=Rudimentary Animation
TTITLE2=Draw For Me, M.C. Escher
TTITLE3=Four Gone Pierre (Or What Electricity Made)
TTITLE4=The First Time I Loved Her It Was Here
TTITLE5=I Recall The Telephone Booth
TTITLE6=On Being Principally Utopian
TTITLE7=Whether By Horse, Or Horseless
TTITLE8=Only Copernicus
TTITLE9=Prelude To Cubism
TTITLE10=My Grandfather, The Cubist
TTITLE11=Cubism Interlude
EXTD=
EXTT0=
EXTT1=
EXTT2=
EXTT3=
EXTT4=
EXTT5=
EXTT6=
EXTT7=
EXTT8=
EXTT9=
EXTT10=
EXTT11=
PLAYORDER=
